HIERARCHY
ROOT Hips
{
	OFFSET 0.00000 0.00000 0.00000
	CHANNELS 6 Xposition Yposition Zposition Zrotation Yrotation Xrotation 
	JOINT LHipJoint
	{
		OFFSET 0 0 0
		CHANNELS 3 Zrotation Yrotation Xrotation
		JOINT LeftUpLeg
		{
			OFFSET 1.35324 -1.81393 0.86676
			CHANNELS 3 Zrotation Yrotation Xrotation
			JOINT LeftLeg
			{
				OFFSET 2.44396 -6.71474 0.00000
				CHANNELS 3 Zrotation Yrotation Xrotation
				JOINT LeftFoot
				{
					OFFSET 2.78389 -7.64869 0.00000
					CHANNELS 3 Zrotation Yrotation Xrotation
					JOINT LeftToeBase
					{
						OFFSET 0.15837 -0.43512 1.94704
						CHANNELS 3 Zrotation Yrotation Xrotation
						End Site
						{
							OFFSET 0.00000 -0.00000 1.00735
						}
					}
				}
			}
		}
	}
	JOINT RHipJoint
	{
		OFFSET 0 0 0
		CHANNELS 3 Zrotation Yrotation Xrotation
		JOINT RightUpLeg
		{
			OFFSET -1.14956 -1.81393 0.86676
			CHANNELS 3 Zrotation Yrotation Xrotation
			JOINT RightLeg
			{
				OFFSET -2.55632 -7.02343 0.00000
				CHANNELS 3 Zrotation Yrotation Xrotation
				JOINT RightFoot
				{
					OFFSET -2.63038 -7.22691 0.00000
					CHANNELS 3 Zrotation Yrotation Xrotation
					JOINT RightToeBase
					{
						OFFSET -0.22277 -0.61205 2.06087
						CHANNELS 3 Zrotation Yrotation Xrotation
						End Site
						{
							OFFSET -0.00000 -0.00000 1.07867
						}
					}
				}
			}
		}
	}
	JOINT LowerBack
	{
		OFFSET 0 0 0
		CHANNELS 3 Zrotation Yrotation Xrotation
		JOINT Spine
		{
			OFFSET -0.05682 2.18266 -0.21665
			CHANNELS 3 Zrotation Yrotation Xrotation
			JOINT Spine1
			{
				OFFSET 0.08791 2.18267 0.00700
				CHANNELS 3 Zrotation Yrotation Xrotation
				JOINT Neck
				{
					OFFSET 0 0 0
					CHANNELS 3 Zrotation Yrotation Xrotation
					JOINT Neck1
					{
						OFFSET -0.14851 1.58495 0.25390
						CHANNELS 3 Zrotation Yrotation Xrotation
						JOINT Head
						{
							OFFSET 0.13566 1.62237 -0.28476
							CHANNELS 3 Zrotation Yrotation Xrotation
							End Site
							{
								OFFSET 0.05601 1.65818 -0.12921
							}
						}
					}
				}
				JOINT LeftShoulder
				{
					OFFSET 0 0 0
					CHANNELS 3 Zrotation Yrotation Xrotation
					JOINT LeftArm
					{
						OFFSET 3.23337 0.97114 -0.51072
						CHANNELS 3 Zrotation Yrotation Xrotation
						JOINT LeftForeArm
						{
							OFFSET 5.19964 -0.00068 -0.00051
							CHANNELS 3 Zrotation Yrotation Xrotation
							JOINT LeftHand
							{
								OFFSET 3.32189 -0.00000 0.00000
								CHANNELS 3 Zrotation Yrotation Xrotation
								JOINT LeftFingerBase
								{
									OFFSET 0 0 0
									CHANNELS 3 Zrotation Yrotation Xrotation
									JOINT LeftHandIndex1
									{
										OFFSET 0.64562 -0.00000 0.00000
										CHANNELS 3 Zrotation Yrotation Xrotation
										End Site
										{
											OFFSET 0.52051 -0.00000 0.00000
										}
									}
								}
								JOINT LThumb
								{
									OFFSET 0 0 0
									CHANNELS 3 Zrotation Yrotation Xrotation
									End Site
									{
										OFFSET 0.52846 -0.00000 0.52846
									}
								}
							}
						}
					}
				}
				JOINT RightShoulder
				{
					OFFSET 0 0 0
					CHANNELS 3 Zrotation Yrotation Xrotation
					JOINT RightArm
					{
						OFFSET -2.95712 1.24697 -0.52388
						CHANNELS 3 Zrotation Yrotation Xrotation
						JOINT RightForeArm
						{
							OFFSET -5.65950 -0.00000 -0.00000
							CHANNELS 3 Zrotation Yrotation Xrotation
							JOINT RightHand
							{
								OFFSET -3.37604 -0.00000 -0.00000
								CHANNELS 3 Zrotation Yrotation Xrotation
								JOINT RightFingerBase
								{
									OFFSET 0 0 0
									CHANNELS 3 Zrotation Yrotation Xrotation
									JOINT RightHandIndex1
									{
										OFFSET -0.82470 -0.00000 -0.00000
										CHANNELS 3 Zrotation Yrotation Xrotation
										End Site
										{
											OFFSET -0.66490 -0.00000 -0.00000
										}
									}
								}
								JOINT RThumb
								{
									OFFSET 0 0 0
									CHANNELS 3 Zrotation Yrotation Xrotation
									End Site
									{
										OFFSET -0.67505 -0.00000 0.67505
									}
								}
							}
						}
					}
				}
			}
		}
	}
}
MOTION
Frames: 16
Frame Time: .0083333
11.8616 17.8214 -38.4744 0 0 0 0 0 0 -21 0 0 0 0 0 0 0 0 0 0 0 0 0 0 21 0 0 0 0 0 0 0 0 0 0 0 0 0 0 0 0 0 0 0 0 0 0 -16 0 0 21 0 0 11 0 0 0 -8 0 0 0 0 0 0 0 0 0 0 0 0 0 0 0 0 0 0 0 0 8 0 0 0 0 0 0 0 0 0 0 0 0 0 0 0 0 0
11.8616 17.8214 -38.4744 -0.4113 -18.4281 7.0119 0.0000 0.0000 0.0000 -19.7198 -9.8081 -13.7969 3.9766 12.1292 36.1905 1.8465 2.1116 -26.5112 0.0792 1.8156 4.9962 0.0000 0.0000 0.0000 23.1639 9.2194 -15.3383 -4.4489 -12.7349 38.3841 -2.0234 -3.2787 -28.2080 -0.9578 -6.2318 17.4585 -5.4467 -1.6271 2.1943 3.7829 -2.2899 -4.2692 7.2009 -0.8283 -5.3276 -19.5721 -10.4481 -5.2250 12.3195 -14.0463 13.2302 5.8290 -7.0434 7.1775 -0.0000 0.0000 0.0000 -94.8529 2.8201 20.0558 13.1686 -21.5338 -2.5148 -0.0000 -0.0000 9.9162 3.9490 32.8167 2.1426 -7.1250 0.0000 -0.0000 -32.4173 59.8128 -12.5081 -0.0000 0.0000 0.0000 85.2881 -5.6412 10.1600 -15.9132 25.4028 -3.6087 0.0000 -0.0000 -12.1916 -13.4113 17.4675 -4.0938 7.1250 -0.0000 -0.0000 9.5841 -12.2404 7.4416
11.8595 17.8242 -38.4774 -0.3761 -18.3240 7.0650 0.0000 0.0000 0.0000 -19.7280 -9.9258 -13.8171 3.9705 12.1210 36.1614 1.6810 3.6963 -26.0534 0.0967 -2.0058 -5.5216 0.0000 0.0000 0.0000 23.1286 9.2645 -15.4124 -4.4616 -12.7506 38.4418 -2.0503 -3.2339 -28.3644 -1.0152 -6.4104 17.9799 -5.4936 -1.6408 2.1883 3.7771 -2.3109 -4.2919 7.2234 -0.8357 -5.3438 -19.5772 -10.4506 -5.2874 12.4278 -14.0566 13.2417 5.8620 -7.0398 7.2021 0.0000 0.0000 0.0000 -94.8531 2.8242 20.0224 13.1765 -21.5453 -2.5177 -0.0000 -0.0000 10.0284 3.9853 32.6542 2.1528 -7.1250 0.0000 -0.0000 -32.2249 59.6851 -12.3243 0.0000 0.0000 0.0000 85.3351 -5.6025 9.9821 -15.8549 25.3235 -3.5837 0.0000 -0.0000 -11.9844 -13.4696 17.5733 -4.1362 7.1250 -0.0000 -0.0000 9.5470 -12.1283 7.4345
11.8570 17.8231 -38.4840 -0.4287 -18.2452 7.1073 0.0000 0.0000 0.0000 -19.6219 -9.9213 -13.9157 3.9875 12.1438 36.2425 1.7513 3.0233 -26.2380 0.0173 -0.8500 -2.3362 0.0000 0.0000 0.0000 23.2199 9.2763 -15.4228 -4.4479 -12.7337 38.3796 -2.0435 -3.3684 -28.3797 -1.0092 -6.3920 17.9260 -5.4666 -1.6589 2.2264 3.7957 -2.3347 -4.2909 7.2308 -0.8476 -5.3608 -19.6120 -10.4475 -5.4642 12.6405 -14.0422 13.1587 5.9327 -7.0136 7.2223 -0.0000 0.0000 0.0000 -94.8126 2.7822 20.0784 13.1811 -21.5519 -2.5194 -0.0000 -0.0000 9.9137 4.2162 32.6945 2.2803 -7.1250 0.0000 -0.0000 -32.0352 59.7723 -12.3100 -0.0000 0.0000 0.0000 85.3820 -5.5417 9.9033 -15.8269 25.2854 -3.5717 0.0000 -0.0000 -11.9058 -13.5198 17.5394 -4.1445 7.1250 -0.0000 -0.0000 9.5135 -12.1578 7.4018
11.8552 17.8238 -38.4917 -0.5081 -18.1380 7.1480 0.0000 0.0000 0.0000 -19.4855 -9.9143 -14.0112 4.0003 12.1608 36.3031 1.8145 2.0683 -26.2699 0.0265 1.0508 2.8885 0.0000 0.0000 0.0000 23.3333 9.2633 -15.4343 -4.4355 -12.7184 38.3233 -2.0428 -3.3317 -28.3587 -1.0954 -6.6508 18.6849 -5.3946 -1.6866 2.2728 3.8206 -2.3690 -4.2708 7.2194 -0.8677 -5.3616 -19.6033 -10.4813 -5.6638 12.5781 -14.0730 13.5025 5.8963 -7.0280 7.3681 0.0000 0.0000 0.0000 -94.7970 2.7651 20.0913 13.2398 -21.6375 -2.5410 -0.0000 -0.0000 9.7441 3.9960 33.4953 2.2078 -7.1250 0.0000 -0.0000 -33.0408 60.3887 -13.2416 0.0000 0.0000 0.0000 85.4053 -5.4701 9.9772 -15.8232 25.2804 -3.5701 0.0000 -0.0000 -11.9383 -13.6291 17.4994 -4.1699 7.1250 -0.0000 -0.0000 9.4411 -12.1877 7.3379
11.8550 17.8262 -38.4929 -0.6048 -18.1513 7.2148 0.0000 0.0000 0.0000 -19.3736 -9.9201 -14.0653 4.0115 12.1757 36.3565 1.7437 2.4751 -25.9417 0.0009 0.1950 0.5356 0.0000 0.0000 0.0000 23.4204 9.3050 -15.4297 -4.4213 -12.7009 38.2588 -2.0476 -3.2370 -28.3479 -1.2098 -6.9777 19.6494 -5.2419 -1.6451 2.2093 3.7882 -2.3037 -4.2127 7.0877 -0.8473 -5.2794 -19.4024 -10.5894 -5.9456 12.4335 -14.1778 13.6269 5.7878 -7.0667 7.4491 0.0000 0.0000 0.0000 -94.6741 2.6447 20.2272 13.2095 -21.5934 -2.5299 -0.0000 -0.0000 9.7452 3.7096 34.1289 2.0833 -7.1250 0.0000 -0.0000 -33.9756 60.8428 -14.0397 0.0000 0.0000 0.0000 85.5471 -5.3627 9.8498 -15.8078 25.2594 -3.5636 0.0000 -0.0000 -11.9052 -13.7249 17.5343 -4.2084 7.1250 -0.0000 -0.0000 9.3784 -12.1434 7.2965
11.8556 17.8246 -38.4872 -0.6705 -18.3399 7.1853 0.0000 0.0000 0.0000 -19.3673 -9.8935 -13.9646 4.0159 12.1816 36.3774 1.6895 3.2921 -25.9219 0.0416 -1.3161 -3.6189 0.0000 0.0000 0.0000 23.4639 9.3633 -15.3203 -4.4119 -12.6893 38.2161 -2.0490 -3.2280 -28.3531 -1.1800 -6.8942 19.4024 -5.0990 -1.5530 2.1048 3.7430 -2.1702 -4.1368 6.9424 -0.7940 -5.1657 -19.3517 -10.6368 -6.0413 12.4154 -14.2325 13.6765 5.7613 -7.0880 7.4859 0.0000 0.0000 0.0000 -94.5506 2.5709 20.3713 13.1747 -21.5426 -2.5171 -0.0000 -0.0000 9.8906 3.4771 34.2544 1.9588 -7.1250 0.0000 -0.0000 -34.3377 60.8893 -14.2487 0.0000 0.0000 0.0000 85.6770 -5.3372 9.7045 -15.8008 25.2498 -3.5606 0.0000 -0.0000 -11.8549 -13.8084 17.5702 -4.2432 7.1250 -0.0000 -0.0000 9.3241 -12.0992 7.2617
11.8548 17.8227 -38.4853 -0.6252 -18.3531 7.1339 0.0000 0.0000 0.0000 -19.4389 -9.9378 -13.9158 4.0151 12.1805 36.3735 1.8528 2.0344 -26.5227 0.0796 1.8202 5.0090 0.0000 0.0000 0.0000 23.4189 9.3453 -15.2689 -4.4072 -12.6834 38.1946 -2.0645 -3.1629 -28.4258 -1.1622 -6.8440 19.2540 -5.1292 -1.5504 2.1848 3.7731 -2.1705 -4.2262 6.9989 -0.7845 -5.3045 -19.6112 -10.5748 -5.9275 12.4954 -14.1684 13.8442 5.8427 -7.0723 7.5360 -0.0000 0.0000 0.0000 -94.6195 2.7920 20.3346 13.2308 -21.6244 -2.5377 -0.0000 -0.0000 9.9733 3.0881 34.5050 1.7505 -7.1250 0.0000 -0.0000 -34.9886 60.9991 -14.6501 -0.0000 0.0000 0.0000 85.5884 -5.5662 9.7799 -15.8239 25.2813 -3.5704 0.0000 -0.0000 -11.8821 -13.8506 17.5417 -4.2500 7.1250 -0.0000 -0.0000 9.2958 -12.1239 7.2343
11.8519 17.8236 -38.4901 -0.5857 -18.2402 7.1660 0.0000 0.0000 0.0000 -19.4293 -9.9804 -14.0069 4.0118 12.1762 36.3580 1.6890 3.5791 -26.0540 0.0921 -1.9573 -5.3876 0.0000 0.0000 0.0000 23.4071 9.3472 -15.3112 -4.4052 -12.6809 38.1853 -2.0702 -3.1629 -28.4629 -1.1914 -6.9264 19.4976 -5.2325 -1.5709 2.3460 3.8325 -2.2080 -4.3564 7.1365 -0.7850 -5.5249 -19.7736 -10.5481 -5.8643 12.5111 -14.1383 13.9559 5.8801 -7.0693 7.5701 -0.0000 0.0000 0.0000 -94.7461 2.9919 20.2090 13.2875 -21.7070 -2.5586 -0.0000 -0.0000 10.0829 2.8604 34.7015 1.6293 -7.1250 0.0000 -0.0000 -35.4249 61.1025 -14.9476 -0.0000 0.0000 0.0000 85.4956 -5.7565 9.8335 -15.8558 25.3248 -3.5841 0.0000 -0.0000 -11.9404 -13.9163 17.4343 -4.2457 7.1250 -0.0000 -0.0000 9.2510 -12.2261 7.1785
11.8506 17.8212 -38.4908 -0.5973 -18.2925 7.1746 0.0000 0.0000 0.0000 -19.4194 -9.9785 -14.0082 4.0110 12.1750 36.3538 1.8438 2.0708 -26.4751 0.0726 1.7385 4.7835 0.0000 0.0000 0.0000 23.4285 9.3195 -15.3176 -4.4014 -12.6762 38.1681 -2.0464 -3.3128 -28.3739 -1.1228 -6.7307 18.9199 -5.2093 -1.5332 2.2926 3.8194 -2.1541 -4.2913 7.1012 -0.7648 -5.4348 -19.7364 -10.5750 -5.7903 12.5217 -14.1826 13.8138 5.8749 -7.0888 7.5163 -0.0000 -0.0000 0.0000 -94.7547 2.9343 20.1149 13.3222 -21.7575 -2.5715 -0.0000 -0.0000 10.2613 3.0210 34.4194 1.7087 -7.1250 0.0000 -0.0000 -34.9631 60.9132 -14.5659 -0.0000 -0.0000 0.0000 85.5738 -5.6201 9.7920 -15.8483 25.3145 -3.5808 0.0000 -0.0000 -11.9288 -14.0845 17.2846 -4.2632 7.1250 -0.0000 -0.0000 9.1377 -12.3610 7.0623
11.8513 17.8180 -38.4866 -0.5787 -18.4054 7.1123 0.0000 0.0000 0.0000 -19.4909 -9.9823 -13.9101 4.0143 12.1794 36.3696 1.7868 2.6977 -26.3434 0.0107 0.6691 1.8386 0.0000 0.0000 0.0000 23.3937 9.2745 -15.2547 -4.3944 -12.6675 38.1362 -2.0303 -3.3357 -28.2784 -1.0900 -6.6351 18.6386 -5.1212 -1.4827 2.1642 3.7420 -2.0794 -4.1762 6.9533 -0.7431 -5.2552 -19.6792 -10.5868 -5.7687 12.5864 -14.2157 13.7555 5.8846 -7.0978 7.4996 -0.0000 -0.0000 0.0000 -94.6523 2.8252 20.1722 13.3170 -21.7499 -2.5695 -0.0000 -0.0000 10.3143 3.2681 34.0245 1.8300 -7.1250 0.0000 -0.0000 -34.3031 60.6511 -14.0361 -0.0000 -0.0000 0.0000 85.7032 -5.4794 9.7178 -15.8234 25.2806 -3.5702 0.0000 -0.0000 -11.8419 -14.1201 17.2191 -4.2588 7.1250 -0.0000 -0.0000 9.1131 -12.4240 7.0307
11.8506 17.8186 -38.4842 -0.5211 -18.4453 7.0713 0.0000 0.0000 0.0000 -19.5677 -9.9795 -13.8625 4.0168 12.1828 36.3817 1.7062 3.1563 -25.9785 0.0015 -0.2518 -0.6918 0.0000 0.0000 0.0000 23.3218 9.2448 -15.2201 -4.3879 -12.6594 38.1066 -2.0397 -3.2153 -28.2866 -1.1248 -6.7366 18.9373 -5.1150 -1.4419 2.1217 3.6811 -2.0250 -4.1529 6.8788 -0.7196 -5.2167 -19.6437 -10.5875 -5.8162 12.6037 -14.2279 13.8899 5.8814 -7.1007 7.5522 0.0000 -0.0000 0.0000 -94.5626 2.8052 20.3630 13.2788 -21.6944 -2.5554 -0.0000 -0.0000 10.2167 3.5888 33.6012 1.9879 -7.1250 0.0000 -0.0000 -33.5511 60.3798 -13.4670 0.0000 -0.0000 0.0000 85.7700 -5.5688 9.7171 -15.8588 25.3289 -3.5854 0.0000 -0.0000 -11.8963 -13.9634 17.2779 -4.2237 7.1250 -0.0000 -0.0000 9.2175 -12.3794 7.1221
11.8486 17.8212 -38.4881 -0.4674 -18.3623 7.0958 0.0000 0.0000 0.0000 -19.5867 -9.9861 -13.9252 4.0171 12.1831 36.3830 1.6388 3.6197 -25.7115 0.0660 -1.6572 -4.5592 0.0000 0.0000 0.0000 23.2708 9.1732 -15.2921 -4.3835 -12.6540 38.0867 -2.0371 -3.2045 -28.2648 -1.0672 -6.5675 18.4401 -5.1975 -1.4577 2.1755 3.7061 -2.0516 -4.2145 6.9591 -0.7238 -5.3060 -19.7332 -10.5564 -5.5509 12.6163 -14.2243 13.8410 5.9128 -7.1130 7.4971 -0.0000 0.0000 0.0000 -94.5973 2.8857 20.4536 13.2570 -21.6626 -2.5474 -0.0000 -0.0000 10.2052 3.8937 32.9063 2.1176 -7.1250 0.0000 -0.0000 -32.5590 59.8747 -12.6190 -0.0000 0.0000 0.0000 85.7167 -5.7288 9.7931 -15.9073 25.3949 -3.6061 0.0000 -0.0000 -11.9672 -13.9465 17.2878 -4.2207 7.1250 -0.0000 -0.0000 9.2288 -12.3710 7.1327
11.8472 17.8207 -38.4920 -0.4744 -18.3361 7.1002 0.0000 0.0000 0.0000 -19.5656 -10.0191 -13.9451 4.0167 12.1826 36.3811 1.8107 1.9006 -26.1746 0.1258 2.2859 6.2966 0.0000 0.0000 0.0000 23.2853 9.1562 -15.3065 -4.3811 -12.6509 38.0754 -2.0377 -3.1557 -28.2472 -1.0196 -6.4238 18.0191 -5.1923 -1.4707 2.1330 3.7196 -2.0661 -4.1407 6.9669 -0.7370 -5.2009 -19.7588 -10.5554 -5.3822 12.6733 -14.2443 13.6488 5.9412 -7.1246 7.4149 0.0000 0.0000 0.0000 -94.5900 2.7370 20.4402 13.2156 -21.6023 -2.5321 -0.0000 -0.0000 10.3531 4.0747 32.1425 2.1705 -7.1250 0.0000 -0.0000 -31.6539 59.2755 -11.7628 0.0000 0.0000 0.0000 85.7151 -5.5932 9.8367 -15.9073 25.3949 -3.6061 0.0000 -0.0000 -11.9638 -14.0170 17.2097 -4.2243 7.1250 -0.0000 -0.0000 9.1811 -12.4432 7.0808
11.8462 17.8179 -38.4933 -0.5201 -18.4434 7.0644 0.0000 0.0000 0.0000 -19.5420 -10.0309 -13.8807 4.0164 12.1822 36.3796 1.6646 3.7716 -25.9723 0.0756 -1.7733 -4.8795 0.0000 0.0000 0.0000 23.3393 9.2296 -15.2303 -4.3788 -12.6482 38.0653 -2.0544 -3.0503 -28.3104 -1.0600 -6.5460 18.3771 -4.9851 -1.4611 1.7749 3.5865 -2.0329 -3.8122 6.6775 -0.7607 -4.6627 -19.5271 -10.5815 -5.5276 12.7866 -14.2688 13.3674 5.9340 -7.1084 7.3440 0.0000 -0.0000 0.0000 -94.3404 2.2214 20.3974 13.1468 -21.5019 -2.5068 -0.0000 -0.0000 10.4255 4.1820 31.7556 2.2038 -7.1250 0.0000 -0.0000 -31.1925 58.9727 -11.3391 0.0000 -0.0000 0.0000 85.9849 -5.0696 9.7905 -15.8562 25.3252 -3.5842 0.0000 -0.0000 -11.8624 -14.0145 17.2549 -4.2343 7.1250 -0.0000 -0.0000 9.1834 -12.3977 7.0915
11.8439 17.8171 -38.4978 -0.5488 -18.5015 7.0657 0.0000 0.0000 0.0000 -19.5025 -10.0073 -13.8881 4.0161 12.1818 36.3781 1.8561 2.2858 -26.6497 0.0779 1.8006 4.9549 0.0000 0.0000 0.0000 23.3847 9.2962 -15.2097 -4.3758 -12.6443 38.0512 -2.0421 -3.1581 -28.2771 -1.0821 -6.6117 18.5700 -5.2751 -1.4476 2.4297 3.8343 -2.0470 -4.2315 7.1528 -0.7082 -5.4653 -19.7091 -10.4606 -5.2674 12.4659 -14.0964 13.5668 5.8902 -7.0679 7.3235 -0.0000 -0.0000 0.0000 -94.7758 2.9021 20.1223 13.1711 -21.5374 -2.5158 -0.0000 -0.0000 10.4826 4.1173 32.0216 2.1858 -7.1250 0.0000 -0.0000 -31.4998 59.1831 -11.6272 -0.0000 -0.0000 0.0000 85.5534 -5.7540 10.0553 -15.8796 25.3571 -3.5942 0.0000 -0.0000 -11.9002 -14.0301 17.3244 -4.2556 7.1250 -0.0000 -0.0000 9.1741 -12.3261 7.0980
